<svg xmlns="http://www.w3.org/2000/svg" viewBox="0 0 203 72"><defs><style>.cls-1{fill:#f2b380;}.cls-2{fill:#be7645;}.cls-3{fill:#e09f6a;}.cls-12,.cls-4{fill:#b7764c;}.cls-13,.cls-5{fill:#7d3c31;}.cls-14,.cls-6{fill:#b76a4e;}.cls-7{fill:#c07545;}.cls-8{fill:#68413b;}.cls-9{fill:#c47b4f;}.cls-10{fill:#c1764a;}.cls-11{fill:#f1b681;}.cls-12,.cls-13,.cls-14{opacity:0.33;}</style></defs><g id="Calque_2" data-name="Calque 2"><g id="Calque_2-2" data-name="Calque 2"><g id="Bouton"><rect class="cls-1" x="18" y="14" width="167" height="40"/><rect class="cls-2" x="23" y="14" width="4" height="3"/><rect class="cls-2" x="18" y="19" width="4" height="4"/><rect class="cls-2" x="23" y="23" width="4" height="4"/><rect class="cls-2" x="18" y="28" width="4" height="4"/><rect class="cls-2" x="23" y="32" width="4" height="4"/><rect class="cls-2" x="18" y="37" width="4" height="4"/><rect class="cls-2" x="23" y="41" width="4" height="4"/><rect class="cls-2" x="18" y="46" width="4" height="4"/><rect class="cls-2" x="23" y="50" width="4" height="4"/><rect class="cls-3" x="22" y="14" width="1" height="40"/><rect class="cls-3" x="18" y="36" width="9" height="1" transform="translate(45 73) rotate(180)"/><rect class="cls-3" x="18" y="27" width="9" height="1" transform="translate(45 55) rotate(180)"/><rect class="cls-3" x="18" y="17" width="9" height="2" transform="translate(45 36) rotate(180)"/><rect class="cls-3" x="18" y="45" width="9" height="1" transform="translate(45 91) rotate(180)"/><rect class="cls-3" x="22" y="49" width="5" height="1" transform="translate(49 99) rotate(180)"/><rect class="cls-2" x="176" y="14" width="4" height="3" transform="translate(356 31) rotate(180)"/><rect class="cls-2" x="181" y="19" width="4" height="4" transform="translate(366 42) rotate(180)"/><rect class="cls-2" x="176" y="23" width="4" height="4" transform="translate(356 50) rotate(180)"/><rect class="cls-2" x="181" y="28" width="4" height="4" transform="translate(366 60) rotate(180)"/><rect class="cls-2" x="176" y="32" width="4" height="4" transform="translate(356 68) rotate(180)"/><rect class="cls-2" x="181" y="37" width="4" height="4" transform="translate(366 78) rotate(180)"/><rect class="cls-2" x="176" y="41" width="4" height="4" transform="translate(356 86) rotate(180)"/><rect class="cls-2" x="181" y="46" width="4" height="4" transform="translate(366 96) rotate(180)"/><rect class="cls-2" x="176" y="50" width="4" height="4" transform="translate(356 104) rotate(180)"/><rect class="cls-3" x="180" y="14" width="1" height="40" transform="translate(361 68) rotate(180)"/><rect class="cls-3" x="176" y="36" width="9" height="1"/><rect class="cls-3" x="176" y="27" width="9" height="1"/><rect class="cls-3" x="176" y="17" width="9" height="2"/><rect class="cls-3" x="176" y="45" width="9" height="1"/><rect class="cls-3" x="176" y="49" width="5" height="1"/><rect class="cls-4" x="36" y="10" width="131" height="4"/><rect class="cls-4" x="36" y="54" width="131" height="4"/><rect class="cls-5" x="167" y="54" width="5" height="4"/><rect class="cls-6" x="172" y="54" width="4" height="4"/><rect class="cls-5" x="167" y="54" width="5" height="4"/><rect class="cls-5" x="176" y="54" width="9" height="4"/><rect class="cls-5" x="167" y="10" width="5" height="4"/><rect class="cls-6" x="172" y="10" width="4" height="4"/><rect class="cls-5" x="167" y="10" width="5" height="4"/><rect class="cls-5" x="176" y="10" width="9" height="4"/><rect class="cls-7" x="185" y="10" width="4" height="53"/><rect class="cls-5" x="185" y="63" width="4" height="5"/><rect class="cls-8" x="189" y="68" width="9" height="4"/><rect class="cls-8" x="198" y="4" width="5" height="64"/><rect class="cls-8" x="189" y="59" width="9" height="4"/><rect class="cls-9" x="189" y="63" width="9" height="5"/><rect class="cls-10" x="194" y="4" width="4" height="55"/><rect class="cls-11" x="189" y="4" width="5" height="55"/><rect class="cls-5" x="185" y="4" width="4" height="6"/><rect class="cls-8" x="189" width="9" height="4"/><rect class="cls-7" x="14" y="10" width="4" height="53" transform="translate(32 73) rotate(180)"/><rect class="cls-5" x="14" y="63" width="4" height="5" transform="translate(32 131) rotate(180)"/><rect class="cls-8" x="5" y="68" width="9" height="4" transform="translate(19 140) rotate(180)"/><rect class="cls-8" y="4" width="5" height="64" transform="translate(5 72) rotate(180)"/><rect class="cls-8" x="5" y="59" width="9" height="4" transform="translate(19 122) rotate(180)"/><rect class="cls-9" x="5" y="63" width="9" height="5" transform="translate(19 131) rotate(180)"/><rect class="cls-10" x="5" y="4" width="4" height="55" transform="translate(14 63) rotate(180)"/><rect class="cls-11" x="9" y="4" width="5" height="55" transform="translate(23 63) rotate(180)"/><rect class="cls-5" x="14" y="4" width="4" height="6" transform="translate(32 14) rotate(180)"/><rect class="cls-8" x="5" width="9" height="4" transform="translate(19 4) rotate(180)"/><rect class="cls-5" x="31" y="54" width="5" height="4" transform="translate(67 112) rotate(180)"/><rect class="cls-6" x="27" y="54" width="4" height="4" transform="translate(58 112) rotate(180)"/><rect class="cls-5" x="31" y="54" width="5" height="4" transform="translate(67 112) rotate(180)"/><rect class="cls-5" x="18" y="54" width="9" height="4" transform="translate(45 112) rotate(180)"/><rect class="cls-5" x="31" y="10" width="5" height="4" transform="translate(67 24) rotate(180)"/><rect class="cls-6" x="27" y="10" width="4" height="4" transform="translate(58 24) rotate(180)"/><rect class="cls-5" x="31" y="10" width="5" height="4" transform="translate(67 24) rotate(180)"/><rect class="cls-5" x="18" y="10" width="9" height="4" transform="translate(45 24) rotate(180)"/><rect class="cls-12" x="36" y="8" width="131" height="2"/><rect class="cls-13" x="167" y="8" width="5" height="2"/><rect class="cls-14" x="172" y="8" width="4" height="2"/><rect class="cls-13" x="167" y="8" width="5" height="2"/><rect class="cls-13" x="176" y="8" width="9" height="2"/><rect class="cls-13" x="31" y="8" width="5" height="2" transform="translate(67 18) rotate(180)"/><rect class="cls-14" x="27" y="8" width="4" height="2" transform="translate(58 18) rotate(180)"/><rect class="cls-13" x="31" y="8" width="5" height="2" transform="translate(67 18) rotate(180)"/><rect class="cls-13" x="18" y="8" width="9" height="2" transform="translate(45 18) rotate(180)"/><rect class="cls-12" x="36" y="58" width="131" height="1"/><rect class="cls-13" x="167" y="58" width="5" height="1"/><rect class="cls-14" x="172" y="58" width="4" height="1"/><rect class="cls-13" x="167" y="58" width="5" height="1"/><rect class="cls-13" x="176" y="58" width="9" height="1"/><rect class="cls-13" x="31" y="58" width="5" height="1" transform="translate(67 117) rotate(180)"/><rect class="cls-14" x="27" y="58" width="4" height="1" transform="translate(58 117) rotate(180)"/><rect class="cls-13" x="31" y="58" width="5" height="1" transform="translate(67 117) rotate(180)"/><rect class="cls-13" x="18" y="58" width="9" height="1" transform="translate(45 117) rotate(180)"/></g><path d="M48.68,45.61v-3h1V38.22h1.06V32.31h1.06V27.88h1.06V23.44H49.73V22h7.4v1.47h1.06v4.44h1.06v4.43h1v5.91h1.06v4.43h1.06v3H56.07V44.13h3.18v-3H58.19V36.74H57.13v1.48H52.91v3H51.85v3h1.06v1.48Zm0-17.73V23.44h1v3h1.06v1.48Zm2.11-1.48V24.92h1.06V26.4ZM54,36.74V35.27h4.23V33.79H57.13V27.88H56.07V26.4H55v1.48H54v5.91H52.91v3ZM55,44.13v-3h2.11v1.47H56.07v1.48Z"/><path d="M65.59,45.61V44.13H64.53V42.65H63.47V38.22h2.12v4.43h1v1.48h2.11v1.48Zm0-7.39V36.74H67.7v1.48Zm3.16,5.91v-3h1.06V35.27H68.75V33.79h-1V32.31H66.64V30.83h2.11v1.48h1.06v1.48h1.06v1.48h1.06v5.91H70.87v3Z"/><path d="M75.09,45.61V44.13H74V42.65H73V38.22h2.11v4.43h1.06v1.48h2.11v1.48Zm0-7.39V36.74h2.12v1.48Zm3.17,5.91v-3h1.06V35.27H78.26V33.79H77.21V32.31H76.15V30.83h2.11v1.48h1.06v1.48h1.05v1.48h1.06v5.91H80.37v3Z"/><path d="M86.71,45.61V44.13h1.06v-3h1.06v3h1v1.48Zm5.28,0V41.18h-1v-3H89.88V35.27h-1V33.79h2.11v1.48h1v2.95h1.06v3h1.06v3h1.06v1.48Zm-3.16-4.43v-3h1v3Z"/><path d="M103.61,50V48.56h1.06v-3h1.06V36.74h-1.06V35.27h-1.06v1.47h-1v4.44h2.11v1.47H101.5V41.18h-1V36.74h1V35.27h1.06V33.79h4.23v1.48h1V45.61h-1v3h-1.06V50Z"/><path d="M111,36.74V35.27H108.9V33.79h3.17v3ZM110,45.61V44.13h-1V38.22h1V36.74H111v7.39h3.17v1.48Zm5.29,0V44.13h-1.06V42.65h1.06V35.27h-1.06V33.79h3.17V45.61Z"/><path d="M119.46,45.61V44.13h-1V36.74h1V35.27h2.11v1.47h-1v1.48h4.23V39.7h1v1.48h-3.17V39.7h-2.11v4.43h4.23v1.48Zm6.34-7.39V36.74h-1V35.27h-3.18V33.79h5.29v4.43Zm-1,5.91V42.65h2.11v1.48Z"/><path d="M130,45.61V44.13h4.22V42.65h-1.06V41.18H130V39.7H129V38.22h-1.06V35.27H130v2.95h4.22V39.7h1.06v1.48h1.06v3h-1.06v1.48Zm-2.12,0V41.18H129v1.47H130v1.48H129v1.48ZM130,35.27V33.79h4.22v1.48Zm5.28,2.95V36.74h-1.06V35.27h1.06V33.79h1.06v4.43Z"/><path d="M140.59,45.61V44.13h-1.06V36.74h-2.11V35.27h2.11v-3h-1.06V30.83h2.12v1.48h1.06v3h2.11v1.47h-2.11v7.39h1v1.48Z"/><path d="M145.87,45.61V44.13h-1.06V36.74h1.06V35.27H148v1.47h-1v1.48h4.22V39.7h1.06v1.48H149V39.7h-2.11v4.43h4.22v1.48Zm6.34-7.39V36.74h-1.06V35.27H148V33.79h5.29v4.43Zm-1.06,5.91V42.65h2.12v1.48Z"/></g></g></svg>