<svg xmlns="http://www.w3.org/2000/svg" viewBox="0 0 101.7 95.86"><defs><style>.cls-1{fill:#e1e2e4;}.cls-2{fill:#925428;}.cls-3{fill:#1d1e1f;}.cls-4{fill:#201d1f;}.cls-5{fill:#030204;}.cls-6{fill:#da3639;}.cls-7{fill:#eb6669;}.cls-8{fill:#363942;}.cls-9{fill:#fc6668;}.cls-10{fill:#f7f6f7;}.cls-11{fill:#ca7336;}.cls-12{fill:#9b2526;}.cls-13{fill:#efa571;}.cls-14{fill:#f9ceb1;}</style></defs><g id="Calque_2" data-name="Calque 2"><g id="Calque_1-2" data-name="Calque 1"><path class="cls-1" d="M78.88,90c.37,1.82.06,3.65.17,5.48l-.4.35-.27-.29c.51-1.82.08-3.68.23-5.51A.63.63,0,0,0,78.88,90Z"/><path class="cls-1" d="M84.43,22.42l-.11,1-.46-.93Z"/><path class="cls-1" d="M78.65,17.25c-.07-.12-.24-.21-.09-.34Z"/><path class="cls-2" d="M39.23,89.9l0,.07-.36.09-.4,0-16,0-.11,0,0-.11c0-.17,0-.33,0-.5.15-6.73.66-4.82-5.53-5.14l.09,0c-.1-.15-.19-.31-.29-.47.12-5.5-.21-11,.17-16.48l5.57.11c0,1.36.09,2.73,0,4.1s.44,1.71,1.7,1.69c3.24,0,6.47-.54,9.72-.32,6.78.61,5.21.81,5.49-5.45H61.82L62,73.13l-.1.1a.66.66,0,0,0-.28,0H39.53l-.21.28q0,7.73,0,15.46l0,.39Z"/><path class="cls-3" d="M16.79,67.31c-.38,5.49-.05,11-.17,16.48l-.39.39H11.76v-1c.48-.39.34-.93.34-1.43q0-9,0-18.08c0-.49.13-1-.34-1.43l-.49-.4.08,0c-.1-.73-.66-.65-1.17-.66H7.45c-.39,0-1,.09-1.06-.35a7.07,7.07,0,0,1,0-3.71c.27-.8,1.31-.34,2-.4,2.48-.2,5,.34,7.44-.31l.16,0h.17c0,3.07,0,6.15.05,9.23,0,.59-.24,1.27.35,1.76l.08-.09Z"/><path class="cls-4" d="M16.82,84.23c6.21.31,5.67-1.58,5.53,5.14-1,0-1.89,0-2.84,0s-1.92.31-2.58-.68V85.91a.85.85,0,0,0,0-1.35Z"/><path class="cls-5" d="M22.49,90l16,0c-.53.49-1.19.27-1.79.28-4,0-8.06,0-12.09,0-1.18,0-1.64.35-1.55,1.55s0,2.38,0,3.58l-.7.08C22.42,93.71,22.46,91.87,22.49,90Z"/><path class="cls-5" d="M15.87,56.42c-2.46.65-5,.11-7.44.31-.7.06-1.74-.4-2,.4a7.07,7.07,0,0,0,0,3.71c.1.44.67.35,1.06.35h2.73c.51,0,1.07-.07,1.17.66-1.91-.4-3.87,0-5.79-.25,0-1.77.05-3.54.08-5.31l5.39,0Z"/><path class="cls-5" d="M11.27,61.82l.49.4q0,11,0,22c-.89-.3-.45-1.05-.45-1.56C11.27,75.69,11.28,68.75,11.27,61.82Z"/><path class="cls-5" d="M16.93,88.67c.66,1,1.67.65,2.58.68s1.89,0,2.84,0c0,.17,0,.33,0,.5-1.48,0-3-.08-4.44,0C17,89.88,16.71,89.56,16.93,88.67Z"/><path class="cls-5" d="M17,84.56a.85.85,0,0,1,0,1.35Z"/><path class="cls-5" d="M16.23,84.18l.39-.39c.1.16.19.32.29.47Z"/><path class="cls-4" d="M23.08,95.47c0-1.2.08-2.39,0-3.58s.37-1.57,1.55-1.55c4,.06,8.06,0,12.09,0,.6,0,1.26.21,1.79-.28l.4,0c0,1.8,0,3.61,0,5.41Z"/><path class="cls-5" d="M38.89,95.47c0-1.8,0-3.61,0-5.41l.36-.09c0,1.52,0,3,0,4.56C39.23,94.85,39.54,95.36,38.89,95.47Z"/><path class="cls-3" d="M95.47,57.07v1a1.94,1.94,0,0,0-2.26,1.75c-.34,1.46,1.28.66,1.65,1.34a13.58,13.58,0,0,0-2,0c-.94.14-2-.52-2.81.49-.43,7.48,0,15-.13,22.53l-5.56,0v-.48c.56-5,0-10.09.19-15.11l0-.94c.55-.51.33-1.18.34-1.78,0-3.08,0-6.15,0-9.23a3.54,3.54,0,0,0,2,.34ZM89.06,82.69l.16.07V62.7h-.16Zm.27-22.34c-.23-1-1-.86-1.63-.87s-1.2.09-1,.9.38,1.52,1.33,1.45S89.05,61,89.33,60.35Zm-3.09,7.42c-.28.45-.34.51.06.81C86.62,68.22,86.58,68.16,86.24,67.77Zm1.73,16s-.38-.53-.63,0Z"/><path class="cls-5" d="M90,61.71c.78-1,1.87-.35,2.81-.49a13.58,13.58,0,0,1,2,0h.62v.59Z"/><path class="cls-3" d="M5.38,39.19l.54.06,5.13.07c0,1.83,0,3.66,0,5.49L7,44.88l-1.42-.15A25,25,0,0,0,5.38,39.19Z"/><path class="cls-5" d="M5.6,56.13,0,56.06c0-3.26.07-6.53,0-9.78,0-1.1.31-1.37,1.34-1.31,1.31.08,2.63,0,3.94,0a.49.49,0,0,0,.31.11l-.09.34c-1.2,0-2.4.07-3.6,0S.34,45.65.4,46.81c.08,1.48,0,3,0,4.46,0,4.47,0,4.47,4.47,4.42h.35l.27,0Z"/><path class="cls-6" d="M5.59,45a.49.49,0,0,1-.31-.11l.25-.2L7,44.88A2.44,2.44,0,0,1,5.59,45Z"/><path class="cls-3" d="M61.91,5.37a.4.4,0,0,0-.06.54l-.06,5.15c-1.37,0-2.74-.05-4.1.08-1.17.1-1.49-.45-1.5-1.44a13.28,13.28,0,0,0,0-3.45l.14-.68C58.19,5.44,60.06,5.82,61.91,5.37Z"/><path class="cls-5" d="M45,5.54l0-5.53c3.25,0,6.49,0,9.74,0,1,0,1.42.18,1.34,1.29-.09,1.42,0,2.85,0,4.27l-.43-.07a32.31,32.31,0,0,1,0-3.41C55.89.65,55.26.31,54,.39c-1.53.09-3.07,0-4.61,0-4,0-4,0-4,3.88,0,.4,0,.8,0,1.19Z"/><path class="cls-7" d="M55.72,5.49l.43.07.1-.07.08.08c0,.23-.09.46-.14.68-3.58-.8-7.42-.1-11.09-.31a.79.79,0,0,0-.22-.05,2.88,2.88,0,0,1-.13-.31.2.2,0,0,1,.25,0l.39,0Z"/><path class="cls-3" d="M90,39.29a36.45,36.45,0,0,0,5.53-.09l.06,5.5-.08.09a14.83,14.83,0,0,1-2.21,0c-1.13-.15-2.38.55-3.39-.45Z"/><path class="cls-5" d="M101.09,56.05l-5.55.08.08-.4.26,0,4.5-.05c.63-1.92.24-3.9.27-5.85.07-4.43,0-4.43-4.38-4.37l-.66,0L95.54,45l1,0c1.19,0,2.38.11,3.55,0,.91-.06,1,.41,1,1.09C101.14,49.4,101.11,52.73,101.09,56.05Z"/><path class="cls-1" d="M101.15,47.13V46.07A.53.53,0,1,1,101.15,47.13Z"/><path class="cls-1" d="M96.56,44.94l-1,0a.1.1,0,0,0,0-.17l.08-.09C96,44.69,96.3,44.62,96.56,44.94Z"/><path class="cls-3" d="M61.92,93.13V91.74c.52-.48.23-1.11.3-1.67H78v5.4H62.22C62.1,94.69,62.51,93.85,61.92,93.13Z"/><path class="cls-5" d="M78,95.47v-5.4h.58c-.15,1.83.28,3.69-.23,5.51Z"/><path class="cls-5" d="M61.92,93.13c.59.72.18,1.56.3,2.34l-.35.07Z"/><path class="cls-8" d="M61.59,95.84l-.08,0v-.1l.39-.19Z"/><path class="cls-7" d="M78.74,28l0,0c0,.17.06.34.1.5,0,1.7,0,3.4,0,5.1l0,.07-.69,0c-.1-6.05,1-5.06-5.07-5.12-1.79-.81-3.69-.11-5.51-.43,0-1.92,0-3.84-.07-5.76l.08-.06,5.61.07,0,0C73.3,29.26,71.85,27.85,78.74,28Z"/><path class="cls-4" d="M73.07,22.4l-5.61-.07c0-1.86,0-3.72,0-5.57l5.49,0C73,18.66,73,20.53,73.07,22.4Z"/><path class="cls-8" d="M78.74,28c-6.91-.18-5.44,1.21-5.69-5.66l1.89.16c-.35.48-1.14,0-1.41.61.13,1.34-.61,3.07.36,3.91.82.69,2.8,0,4.09.19.72-.07.1-.89.6-1.08Z"/><path class="cls-5" d="M78.58,26.16c-.5.19.12,1-.6,1.08,0-5.07.84-4.06-4.12-4.14a1.24,1.24,0,0,0-.33,0c.27-.65,1.06-.13,1.41-.61C79.3,22.51,78.62,21.78,78.58,26.16Z"/><path class="cls-5" d="M78.8,28.56c0-.16-.07-.33-.1-.5h5.53c0,1.77,0,3.53,0,5.3-.65-1.16-.22-2.42-.28-3.63-.05-.87-.34-1.21-1.21-1.18C81.39,28.6,80.09,28.56,78.8,28.56Z"/><path class="cls-6" d="M5.6,56.13l-.09-.4c0-1.72.09-3.44.13-5.16l5.47,0L11,56.27l-5.39,0-.08-.07Z"/><path class="cls-4" d="M16.93,33V29.25c1.29-1.57,3.54,0,5.12-1a.1.1,0,0,1,0-.17l.42-.13-.09,5.73-5.11,0C17.22,33.39,17.2,33.15,16.93,33Z"/><path class="cls-3" d="M11.75,33.76h4.14a3.38,3.38,0,0,1,.34,2.14c-.07,3.31.66,2.92-3.14,3-1.07,0-1.4-.39-1.35-1.4C11.8,36.26,11.76,35,11.75,33.76Z"/><path class="cls-5" d="M11.75,33.76c0,1.25.05,2.5,0,3.74-.05,1,.28,1.42,1.35,1.4,3.8-.07,3.07.32,3.14-3a3.38,3.38,0,0,0-.34-2.14h.76l.09.61c0,1.62-.07,3.24-.1,4.85l-5.38,0c0-1.84,0-3.67.05-5.51Z"/><path class="cls-5" d="M22.05,28.23c-1.58,1.06-3.83-.55-5.12,1l0-1.14Z"/><path class="cls-5" d="M16.93,33c.27.11.29.35.31.59a.46.46,0,0,1-.32.09h0Z"/><path class="cls-6" d="M16.74,34.38l-.09-.61a.16.16,0,0,1,.23-.06h0Z"/><path class="cls-4" d="M29.27,16.92H31a2.09,2.09,0,0,0,2.38,0l.34-.12,0,.09-.06,5.45-5.74.09.13-.43.09,0,.08.06c.68-1,.23-2.1.32-3.15C28.62,18.15,28.49,17.39,29.27,16.92Z"/><path class="cls-3" d="M33.77,15.88V11.74h2c3.27,0,3.55.33,3.08,3.55-.08.5-.19.94-.77.91C36.68,16.12,35.18,16.54,33.77,15.88Z"/><path class="cls-5" d="M33.77,15.88c1.41.66,2.91.24,4.36.32.58,0,.69-.41.77-.91.47-3.22.19-3.55-3.08-3.55h-2l-.07-.44,5.51,0c-.31,5.9,1.67,5.36-4.77,5.48l-.68-.1Z"/><path class="cls-5" d="M29.27,16.92c-.78.47-.65,1.23-.71,2-.09,1.05.36,2.16-.32,3.15l-.12-5.16Z"/><path class="cls-5" d="M33.38,16.93a2.09,2.09,0,0,1-2.38,0Z"/><path class="cls-6" d="M33.77,16.64l.68.1a.5.5,0,0,1,0,.21l-.69-.05,0-.09,0-.1Z"/><path class="cls-3" d="M67.35,12.43v3.45a3.66,3.66,0,0,1-2.16.34c-3,0-3.62-.81-2.95-3.71a.82.82,0,0,1,.42-.68A8.05,8.05,0,0,1,67.35,12.43Z"/><path class="cls-5" d="M67.35,12.43a8.05,8.05,0,0,0-4.69-.6.82.82,0,0,0-.42.68c-.67,2.9,0,3.71,2.95,3.71a3.66,3.66,0,0,0,2.16-.34c0,.25,0,.49,0,.74l-4.85.12-.65-.17V11.25l5.52,0Z"/><path class="cls-7" d="M62.54,16.74l4.85-.12.07.06,0,.08c0,1.85,0,3.71,0,5.57l-.08.06a1,1,0,0,1-.34,0c-.1-1.62.68-3.7-.3-4.74s-3.2-.25-4.86-.41V16.9h0Z"/><path class="cls-3" d="M44.75,5.58a2.88,2.88,0,0,0,.13.31c0,.25,0,.5,0,.75-.36,1.45.74,3.48-.55,4.27s-3.38.15-5,.12c0-1.7-.05-3.41-.08-5.12l0-.54C41,5.87,42.9,5.48,44.75,5.58Z"/><path class="cls-9" d="M95.53,44.79a.1.1,0,0,1,0,.17l.07.42c0,1.62,0,3.23,0,4.85l-.15.33H90c-.05-6.94.83-5.26-5.78-5.55a2.41,2.41,0,0,1-.08-.25l.08-1.41c.8.07,1.41.74,2.26.69.58,0,1.26,0,1.37-.71.13-.87.38-1.83-.33-2.59-1-1.09-2.19-.07-3.3.2.12-1.24-.29-1.87-1.69-1.73a38.6,38.6,0,0,1-3.88,0h0a11.71,11.71,0,0,1,0-5.52l0-.07,5.64.07h0a24.09,24.09,0,0,0,0,2.55c.12,1-.48,2.13.45,3,1.08.54,2.24.21,3.35.25,2.61.06.76,3.28,1.67,4.8,1,1,2.26.3,3.39.45A14.83,14.83,0,0,0,95.53,44.79Z"/><path class="cls-4" d="M84.4,33.73l-5.64-.07c0-1.7,0-3.4,0-5.1,1.29,0,2.59,0,3.89,0,.87,0,1.16.31,1.21,1.18.06,1.21-.37,2.47.28,3.63Z"/><path class="cls-3" d="M85.23,33.76h4.13v5.4H89c-1-.57-2-.17-3-.27-.53,0-1.12,0-1.09-.75C85,36.68,84.57,35.18,85.23,33.76Z"/><path class="cls-5" d="M85.23,33.76c-.66,1.42-.25,2.92-.31,4.38,0,.71.56.7,1.09.75,1,.1,2-.3,3,.27l-4.1.14c-.93-.89-.33-2-.45-3a24.09,24.09,0,0,1,0-2.55Z"/><path class="cls-5" d="M89.36,39.17v-5.4l.43-.07c0,1.69,0,3.38.07,5.07C89.68,38.88,89.7,39.25,89.36,39.17Z"/><path class="cls-6" d="M90,50.55h5.44c0,1.73.1,3.45.14,5.17l-.08.4,0,.07-.06.06-5.4,0L90,50.63Z"/><path class="cls-4" d="M90.12,56.21l5.4,0c0,.27,0,.54,0,.81H86.9a3.54,3.54,0,0,1-2-.34v-.36Z"/><path class="cls-4" d="M95.47,61.2h-.62c-.37-.68-2,.12-1.65-1.34a1.94,1.94,0,0,1,2.26-1.75Z"/><path class="cls-2" d="M78.61,90.06c-5.46,0-10.93,0-16.39,0L61.87,90l0-.08-.09-.52q0-7.92,0-15.85a.54.54,0,0,0,.06-.3l.1-.1c5.17,0,10.35,0,15.52.08,1,0,1.26-.44,1.24-1.35,0-1.47,0-3,0-4.43l5.58-.11.2.42c0,.31,0,.62,0,.94a2.39,2.39,0,0,0-.24.79c0,4.93,0,9.87,0,14.8l0,0c-5.06.09-6.08-.56-5.51,5.13l0,.51.12,0,0,.12A.63.63,0,0,1,78.61,90.06Z"/><path class="cls-5" d="M61.8,89.38l.09.52-5.51,0c0-3.72-.07-7.43-.1-11.14l.5,0q0,3.32,0,6.65C56.53,90.22,57.79,89.1,61.8,89.38Z"/><path class="cls-5" d="M61.87,90l.35.09c-.07.56.22,1.19-.3,1.67Z"/><path class="cls-5" d="M22.39,22.37a27.8,27.8,0,0,0,5.16,0l.42,0v1c-.4,1.49.31,3.08-.42,4.54-1.7,0-3.4,0-5.1,0l0-.42A28.8,28.8,0,0,0,22.39,22.37Zm3,5.19c2.18,0,2.18,0,2.18-2.26s0-2.22-2.21-2.22-2.26,0-2.26,2.33C23.09,27.56,23.09,27.56,25.38,27.56Z"/><path class="cls-10" d="M22.41,27.54c0,.14,0,.28,0,.42v0l-.42.13Z"/><path class="cls-10" d="M28,22.44l-.42,0,.52-.39c0,.15-.09.29-.13.43Z"/><path class="cls-5" d="M78.73,89.88c0-.17,0-.34,0-.51,1.24,0,2.49-.06,3.72,0,1,0,1.39-.3,1.4-1.35s-.34-2.36.28-3.46c0,1.76,0,3.53,0,5.3Z"/><path class="cls-7" d="M89.36,39.17c.34.08.32-.29.5-.4l.16.52-.09,5.06c-.91-1.52.94-4.74-1.67-4.8-1.11,0-2.27.29-3.35-.25l4.1-.14Z"/><path class="cls-7" d="M11.26,39.21l5.38,0h.16c0,1.92,0,3.85,0,5.77l-5.77,0,0-.15c0-1.83,0-3.66,0-5.49l.06-.14Z"/><path class="cls-7" d="M61.89,11.25v5.32a.74.74,0,0,0,0,.33h0l-5.76-.06c-.31-1.91.36-3.88-.43-5.74.51-.35-.35-1.17.49-1.4,0,1,.33,1.54,1.5,1.44,1.36-.13,2.73-.06,4.1-.08l.13,0Z"/><path class="cls-7" d="M39.34,11c1.62,0,3.76.59,5-.12s.19-2.82.55-4.27a.65.65,0,0,0,.21-.06c2.07,0,1.14,3.16,1.34,4.5-1.17.29-1.52,1-1.41,2.19a35.26,35.26,0,0,1,0,3.56c-1.9.31-3.88-.37-5.76.41-1.6-.14-3.24.32-4.81-.29a.5.5,0,0,0,0-.21c6.46-.12,4.45.43,4.77-5.48l0-.16Z"/><path class="cls-5" d="M56.78,78.72l-.5,0a.17.17,0,0,1-.24-.15c-.12-.48-.46-.57-.9-.57C52.08,78,49,78,46,78c-.44,0-.78.1-.89.58a.16.16,0,0,1-.23.14c-.77.39-.34,1.15-.5,1.73-.65,1.29-.27,2.68-.28,4-.06,4.67,0,4.67-4.74,4.5q0-7.74,0-15.46l.21-.28H61.59l.22.3q0,7.73,0,15.45c-.51,0-1,0-1.52,0-3.21,0-3.15,0-3.23-3.24C57,83.42,57.43,81,56.78,78.72Z"/><path class="cls-11" d="M61.82,67.44H39.3l-.08-.07c0-1.37.06-2.74,0-4.1,0-1,.25-1.43,1.33-1.42q10,0,20,0c1.09,0,1.37.42,1.33,1.42-.06,1.36,0,2.73,0,4.1Z"/><path class="cls-11" d="M78.76,67.43c0,1.48-.07,3,0,4.43,0,.91-.22,1.36-1.24,1.35-5.17-.06-10.35-.06-15.52-.08l-.15-5.69.07-.07,16.8,0Z"/><path class="cls-11" d="M39.3,67.44c-.27,6.23,1.26,6.08-5.49,5.45-3.25-.22-6.48.27-9.72.32-1.26,0-1.76-.42-1.7-1.69s0-2.74,0-4.1l.08-.09,16.78,0Z"/><path class="cls-11" d="M22.36,67.42l-5.57-.11-.11,0-.08.09c.07-1.86.13-3.72.2-5.58l5.6,0,.05,5.5Z"/><path class="cls-8" d="M39.33,89c4.72.17,4.68.17,4.74-4.5,0-1.33-.37-2.72.28-4,0,2.43,0,4.87,0,7.31,0,1.14-.26,1.66-1.5,1.57s-2.38,0-3.57,0C39.32,89.24,39.32,89.11,39.33,89Z"/><path class="cls-8" d="M39.53,73.24l-.21.28Z"/><path class="cls-8" d="M61.81,73.53l-.22-.3a.66.66,0,0,1,.28,0A.54.54,0,0,1,61.81,73.53Z"/><path class="cls-12" d="M11,56.27c0-1.89.05-3.79.08-5.68h0l5.73-.07c0,1.73.07,3.46.11,5.2l-.14.39h0l-.62.29H16l-.16,0Z"/><path class="cls-4" d="M11.76,83.16V62.22c.47.39.34.94.34,1.43q0,9,0,18.08C12.1,82.23,12.24,82.77,11.76,83.16Z"/><path class="cls-5" d="M16.2,56.39l.62-.29a31.92,31.92,0,0,0,0,5.7c-.07,1.86-.13,3.72-.2,5.58-.59-.49-.35-1.17-.35-1.76C16.21,62.54,16.21,59.46,16.2,56.39Z"/><path class="cls-5" d="M45.08,78.6c.11-.48.45-.58.89-.58,3.06,0,6.11,0,9.17,0,.44,0,.78.09.9.57Z"/><path class="cls-8" d="M89.06,82.69v-20h.16V82.76Z"/><path class="cls-4" d="M89.33,60.35c-.28.61-.48,1.41-1.33,1.48s-1.18-.74-1.33-1.45.41-.92,1-.9S89.1,59.37,89.33,60.35Z"/><path class="cls-4" d="M84.33,83.79c0-4.77,0-9.55,0-14.32a2.39,2.39,0,0,1,.24-.79C84.36,73.69,84.89,78.82,84.33,83.79Z"/><path class="cls-5" d="M84.54,67.74c-.06-.14-.13-.28-.2-.42a24.17,24.17,0,0,0,0-5.51,32.25,32.25,0,0,0,0-5.73l.58.29c0,3.2,0,6.39,0,9.59C84.87,66.56,85.09,67.23,84.54,67.74Z"/><path class="cls-4" d="M86.24,67.77c.34.39.38.45.06.81C85.9,68.28,86,68.22,86.24,67.77Z"/><path class="cls-8" d="M88,83.76h-.63C87.59,83.23,88,83.75,88,83.76Z"/><path class="cls-4" d="M84.18,84.56c-.62,1.1-.27,2.31-.28,3.46s-.38,1.4-1.4,1.35c-1.23-.06-2.48,0-3.72,0-.57-5.69.45-5,5.51-5.13A.54.54,0,0,1,84.18,84.56Z"/><path class="cls-9" d="M11.09,44.81l0,.15c0,1.87,0,3.75,0,5.62h0l-5.47,0c0-1.73-.09-3.46-.14-5.19L5.59,45A2.44,2.44,0,0,0,7,44.88Z"/><path class="cls-3" d="M5.24,55.7H4.89c-.81-.66-1.76-.32-2.64-.3-1.09,0-1.55-.31-1.5-1.46.08-1.77,0-3.54,0-5.31,0-3.19-.56-2.8,2.94-2.9,1.23,0,1.57.41,1.54,1.58C5.19,50.1,5.24,52.9,5.24,55.7Z"/><path class="cls-4" d="M5.24,55.7c0-2.8,0-5.6,0-8.4,0-1.17-.31-1.61-1.54-1.58-3.5.1-2.89-.29-2.94,2.9,0,1.77,0,3.54,0,5.31-.05,1.15.41,1.47,1.5,1.46.88,0,1.83-.36,2.64.3-4.47.05-4.47.05-4.47-4.42,0-1.49.06-3,0-4.46-.06-1.16.41-1.5,1.5-1.44s2.4,0,3.6,0c0,1.73.09,3.46.14,5.19S5.55,54,5.51,55.73Z"/><path class="cls-9" d="M46.44,11.08c-.2-1.34.73-4.5-1.34-4.5V5.94c3.67.21,7.51-.49,11.09.31a13.28,13.28,0,0,1,0,3.45c-.84.23,0,1.05-.49,1.4Z"/><path class="cls-4" d="M55.72,5.49H45.39c0-.4,0-.8,0-1.2,0-3.88,0-3.88,4-3.88,1.54,0,3.08.07,4.61,0,1.29-.08,1.92.26,1.77,1.69A32.31,32.31,0,0,0,55.72,5.49Zm-5.25-.26h1.88c3.25,0,3.4-.2,3-3.47-.08-.73-.37-1-1.06-1H46.8c-.47,0-.86.06-1,.64C44.53,5.33,47.57,5.34,50.47,5.23Z"/><path class="cls-6" d="M45.1,5.94v.64a.65.65,0,0,1-.21.06c0-.25,0-.5,0-.75A.79.79,0,0,1,45.1,5.94Z"/><path class="cls-3" d="M95.63,50.23c0-1.62,0-3.23,0-4.85l.66,0c.76.6,1.65.31,2.45.27,1.26-.07,1.7.33,1.66,1.63-.08,2.77,0,5.55,0,8.32l-4.5.05C95.73,53.88,96.19,52,95.63,50.23Z"/><path class="cls-8" d="M100.38,55.65c0-2.77-.08-5.55,0-8.32,0-1.3-.4-1.7-1.66-1.63-.8,0-1.69.33-2.45-.27,4.4-.06,4.45-.06,4.38,4.37C100.62,51.75,101,53.73,100.38,55.65Z"/><path class="cls-4" d="M95.63,50.23c.56,1.8.1,3.65.25,5.47l-.26,0c0-1.72-.09-3.44-.14-5.17Z"/><path class="cls-6" d="M67,22.39a1,1,0,0,0,.34,0l.07,5.76-.07.08L62,28.16c0-1.9-.09-3.79-.14-5.69l.08-.08Z"/><path class="cls-6" d="M67.45,28.15c1.82.32,3.72-.38,5.51.43l0,5.1-5.48,0c0-1.81,0-3.62-.07-5.43Z"/><path class="cls-6" d="M78.72,33.73a11.67,11.67,0,0,0,0,5.51c-6.61-.12-5.37,1.15-5.51-5.47L78,33.7Z"/><path class="cls-9" d="M78,33.7l-4.86.07-.24-.09,0-5.1C79.08,28.63,77.92,27.66,78,33.7Z"/><path class="cls-4" d="M73.53,23.14a1.24,1.24,0,0,1,.33,0c5,.08,4.13-.93,4.12,4.14-1.29-.16-3.27.5-4.09-.19C72.92,26.21,73.66,24.48,73.53,23.14Z"/><path class="cls-9" d="M22.44,27.93v0h1a.41.41,0,0,0,.7,0h3.42l.69.25h0c0,1.81,0,3.62-.08,5.43l-5.75.07-.06-.07Z"/><path class="cls-9" d="M16.8,39.22h-.16c0-1.61.06-3.23.1-4.85l.18-.66a.46.46,0,0,0,.32-.09l5.11,0,.06.07,0,5.47Z"/><path class="cls-9" d="M28,22.44h0l5.74-.09.06,0-.09,5.76-5.41.07h0c-.2-1.59.28-3.22-.27-4.79Z"/><path class="cls-9" d="M34.43,17c1.57.61,3.21.15,4.81.29l0,5.19h0l-5.52,0-.06,0,.06-5.45Z"/><path class="cls-6" d="M61.89,16.9a.74.74,0,0,1,0-.33l.65.17Z"/><path class="cls-6" d="M56.13,16.83l5.76.07c0,.11,0,.23,0,.34,0,1.72,0,3.43,0,5.15l-.08.08c-6.65-.35-5.68,1.38-5.76-5.57Z"/><path class="cls-9" d="M61.89,22.39c0-1.72,0-3.43,0-5.15,1.66.16,3.79-.73,4.86.41s.2,3.12.3,4.74Z"/><path class="cls-12" d="M72.93,33.68l.24.09c.13,6.63-1.08,5.34,5.51,5.47h0c.13,6.62-1.15,5.4,5.49,5.51a2.41,2.41,0,0,0,.08.25c0,1.83,0,3.65,0,5.47l-.13.14-5.47-.06,0,0c-.06-5.08.39-5.92-5.16-5.52l-.39,0-.26-.22,0-.44c0-1.36,0-2.72,0-4.08,0-.68-.21-1.1-1-1-1.41.1-2.83-.22-4.22.2l-.37-.24,0,0-.06-.35V33.76l.11-.1Z"/><path class="cls-6" d="M84.28,50.47c0-1.82,0-3.64,0-5.47,6.63.28,5.72-1.37,5.78,5.55l-.07.08Z"/><path class="cls-6" d="M84.18,44.75c-6.65-.11-5.35,1.1-5.49-5.51a38.6,38.6,0,0,0,3.88,0c1.4-.14,1.81.49,1.69,1.73v2.41Z"/><path class="cls-7" d="M84.26,43.34V40.93c1.11-.27,2.29-1.29,3.3-.2.71.76.46,1.72.33,2.59-.11.7-.79.67-1.37.71C85.67,44.08,85.06,43.41,84.26,43.34Z"/><path class="cls-12" d="M84.28,50.47l5.69.16.15,5.58-5.21.16-.58-.29h0l-.21-.38c0-1.7,0-3.4,0-5.1Z"/><path class="cls-11" d="M84.31,61.81a24.17,24.17,0,0,1,0,5.51l-5.58.11-.07-.08c0-1.84,0-3.68,0-5.51Z"/><path class="cls-8" d="M56.78,78.72c.65,2.32.2,4.7.27,7,.08,3.24,0,3.25,3.23,3.24.51,0,1,0,1.52,0v.4c-4-.29-5.27.84-5-4Q56.76,82,56.78,78.72Z"/><path class="cls-4" d="M25.38,27.56c-2.29,0-2.29,0-2.29-2.15,0-2.33,0-2.33,2.26-2.33s2.21,0,2.21,2.22S27.56,27.55,25.38,27.56Z"/><path class="cls-2" d="M28,23.44c.55,1.57.07,3.2.27,4.79L27.55,28C28.28,26.52,27.57,24.93,28,23.44Z"/><path class="cls-2" d="M24.13,28a.41.41,0,0,1-.7,0Z"/><path class="cls-6" d="M11.11,50.58c0-1.87,0-3.75,0-5.62l5.77,0,.07.06,0,5.43,0,0Z"/><path class="cls-6" d="M16.8,39.22l5.59,0,.08.08c-.29,6.58,1.26,5.73-5.56,5.77L16.84,45C16.83,43.07,16.82,41.14,16.8,39.22Z"/><path class="cls-6" d="M46.44,11.08l9.26,0c.79,1.86.12,3.83.43,5.74l-.08.06h-11L45,16.83a35.26,35.26,0,0,0,0-3.56C44.92,12.1,45.27,11.37,46.44,11.08Z"/><path class="cls-6" d="M39.27,22.43l0-5.19c1.88-.78,3.86-.1,5.76-.41l.06.07C45.05,23.68,45.73,22.23,39.27,22.43Z"/><path class="cls-13" d="M78.71,61.84c0,1.83,0,3.67,0,5.51l-16.8,0c0-1.37-.06-2.74,0-4.1,0-1-.24-1.43-1.33-1.42q-10,0-20,0c-1.08,0-1.37.42-1.33,1.42.05,1.36,0,2.73,0,4.1l-16.78,0c0-1.83,0-3.66,0-5.5,0-.45,0-.91,0-1.37,0-4.07,0-4.07,4-4.1,1.33.2,1.84-.25,1.8-1.63,0-4,0-4.09,4-4.15,1.09,0,1.51-.32,1.5-1.46s-.59-2.92.3-3.79,2.5-.26,3.8-.27c1,0,1.45-.31,1.4-1.37-.07-1.48,0-3,0-4.45h1.54c4.1,0,4.13,0,4.23-4.12,0-1,.3-1.44,1.37-1.4,1.88.06,3.76,0,5.65,0,3.94,0,3.94,0,4,4-.15,1.09.26,1.61,1.39,1.53,1.48-.07,3,0,4.45,0l0,0c0,.58,0,1.15,0,1.72,0,4.05,0,4.09,3.94,4.1,1.15,0,1.71.28,1.59,1.53-.09.91,0,1.83,0,2.75s.37,1.28,1.31,1.28c1.31,0,2.95-.56,3.83.23s.33,2.6.36,3.94c-.11,2.45,2.51,1.43,4.34,1.61,1.13-.06,1.54.46,1.5,1.54C78.67,59.21,78.71,60.52,78.71,61.84Z"/><path class="cls-14" d="M39.25,39.24c0,1.48-.06,3,0,4.45.05,1.06-.39,1.36-1.4,1.37-1.3,0-2.92-.58-3.8.27s-.31,2.5-.3,3.79-.41,1.44-1.5,1.46c-4,.06-4,.1-4,4.15.05,1.38-.47,1.83-1.8,1.63-4,0-4,0-4,4.1,0,.46,0,.92,0,1.37l-5.6,0a31.92,31.92,0,0,1,0-5.7h0a15.38,15.38,0,0,0,2,0c1.16-.18,2.42.51,3.5-.36,0-1.72.06-3.43.1-5.15l0,0,5.15-.12c.65-.08.38-.59.39-.91,0-1.5,0-3,0-4.52l.27-.24c6.61-.14,5.31,1.31,5.29-5.34a.15.15,0,0,0,.08-.23l-.05,0,5.68,0Z"/><path class="cls-4" d="M22.45,50.56l-.1,5.15H17c0-1.74-.07-3.47-.11-5.2l0,0Z"/><path class="cls-5" d="M17,55.71h5.4c-1.08.87-2.34.18-3.5.36a15.38,15.38,0,0,1-2,0Z"/><path class="cls-14" d="M78.71,61.84c0-1.32,0-2.63,0-4,0-1.08-.37-1.6-1.5-1.54-1.83-.18-4.46.84-4.34-1.61,0-1.34.64-3.05-.36-3.94s-2.52-.22-3.83-.23c-.94,0-1.37-.3-1.31-1.28s-.06-1.84,0-2.75C67.52,45.29,67,45,65.81,45c-4,0-4,0-3.94-4.1,0-.57,0-1.14,0-1.72l5.49.05,0,0a13.15,13.15,0,0,1,.12,3.91c0,1.27.23,1.88,1.66,1.73a36.23,36.23,0,0,1,3.76,0l.26.22a15.7,15.7,0,0,0,0,2.17c.15,1.09-.5,2.27.37,3.26l5.16.12,0,0,.09,5.16c.1.62.61.36.93.37,1.56,0,3.12,0,4.68,0h0a32.25,32.25,0,0,1,0,5.73Z"/><path class="cls-3" d="M50.47,5.23c-2.9.11-5.94.1-4.7-3.82.17-.58.56-.64,1-.64h7.52c.69,0,1,.27,1.06,1,.37,3.27.22,3.47-3,3.47Z"/><path class="cls-12" d="M39.27,22.43c6.48-.2,5.78,1.24,5.79-5.53h11c.08,7-.87,5.21,5.76,5.57,0,1.9.1,3.79.14,5.69l-.11.12-5.1,0-.45,0L56.07,28c0-.13,0-.26,0-.39,0-1.26,0-2.51.08-3.77,0-.92-.36-1.37-1.31-1.36-2.85,0-5.71,0-8.56,0-.88,0-1.24.32-1.21,1.2.06,1.31.06,2.63.08,3.94L45,28l-.22.25-.44,0-5.16,0c0-1.94,0-3.87,0-5.8Z"/><path class="cls-12" d="M67.38,28.23c0,1.81.05,3.62.07,5.43l-.11.1-5.13,0-.37-.09a.18.18,0,0,1-.25-.1.16.16,0,0,1-.08-.21c.78-1.66.17-3.4.33-5.1l.11-.12Z"/><path class="cls-6" d="M22.39,39.2l0-5.47,5.75-.07.09.07-.09,5.42-5.69.13Z"/><path class="cls-6" d="M28.24,28.23l5.41-.07.09.08c0,1.8-.05,3.61-.08,5.42l-5.41.07-.09-.07C28.19,31.85,28.21,30,28.24,28.23Z"/><path class="cls-6" d="M39.26,22.43c0,1.93,0,3.86,0,5.8H33.74l-.09-.08.09-5.76Z"/><path class="cls-4" d="M78.71,50.58l-5.16-.12v-5.4C79.1,44.66,78.65,45.5,78.71,50.58Z"/><path class="cls-4" d="M78.77,55.71l-.09-5.16,5.47.06c0,1.7,0,3.4,0,5.1Z"/><path class="cls-4" d="M62.21,33.78l5.13,0c0,1.71,0,3.42,0,5.13C61.21,38.79,62.32,39.89,62.21,33.78Z"/><path class="cls-4" d="M67.73,39.44c1.39-.42,2.81-.1,4.22-.2.76-.05,1,.37,1,1,0,1.36,0,2.72,0,4.08-1.13,0-2.27-.06-3.39,0S68,44,68,42.91,68.42,40.54,67.73,39.44Z"/><path class="cls-5" d="M67.73,39.44c.69,1.1.29,2.32.3,3.47s.3,1.57,1.45,1.48,2.26,0,3.39,0l0,.44a36.23,36.23,0,0,0-3.76,0c-1.43.15-1.71-.46-1.66-1.73a13.15,13.15,0,0,0-.12-3.91Z"/><path class="cls-5" d="M62.21,33.78c.11,6.12-1,5,5.12,5.11l.06.35-5.49-.05,0,0c0-1.84-.06-3.68-.08-5.52Z"/><path class="cls-5" d="M73.55,45.06v5.4c-.87-1-.22-2.17-.37-3.26a15.7,15.7,0,0,1,0-2.17Z"/><path class="cls-5" d="M78.77,55.71h5.4l.21.38c-1.56,0-3.12,0-4.68,0C79.38,56.07,78.87,56.33,78.77,55.71Z"/><path class="cls-12" d="M22.47,39.28l5.69-.13.12.11v5.12l0,.42L28,45l-.39.06c-6.5-.24-4.91-.47-5.16,5.49l0,0-5.58-.08c0-1.81,0-3.62,0-5.43C23.74,45,22.18,45.85,22.47,39.28Z"/><path class="cls-14" d="M61.84,33.69c0,1.84,0,3.68.08,5.52-1.49,0-3,0-4.45,0-1.13.08-1.54-.44-1.39-1.53-.1-4-.1-4-4-4-1.89,0-3.77.05-5.65,0-1.07,0-1.34.39-1.37,1.4-.1,4.13-.13,4.13-4.23,4.12H39.25l0,0c0-1.84,0-3.68.05-5.52a.19.19,0,0,0,.25-.12c6.6,0,5.12,1.07,5.29-5.37L45,28h11l.22.26c.19,6.47-1.3,5.31,5.3,5.38A.18.18,0,0,0,61.84,33.69Z"/><path class="cls-12" d="M28.25,33.73l5.41-.07.11.1,0,5.14-.24.35.05,0-5.32,0-.12-.11Z"/><path class="cls-4" d="M22.41,50.59c.25-6-1.33-5.72,5.16-5.49,0,1.79,0,3.58,0,5.37Z"/><path class="cls-4" d="M28.28,39.26l5.32,0a.15.15,0,0,1-.08.23,1.19,1.19,0,0,0-.47.86c-.17,1.31.65,3.15-.45,3.82s-2.88.18-4.33.24Z"/><path class="cls-5" d="M33.55,39.25l.24-.35c6.11-.11,5,1,5.12-5.12l.37-.08-.05,5.52Z"/><path class="cls-5" d="M28.27,44.38c1.45-.06,3.25.42,4.33-.24s.28-2.51.45-3.82a1.19,1.19,0,0,1,.47-.86c0,6.66,1.3,5.19-5.29,5.34C28.24,44.66,28.25,44.52,28.27,44.38Z"/><path class="cls-5" d="M27.56,50.47c0-1.79,0-3.58,0-5.37L28,45c0,1.51,0,3,0,4.52C27.94,49.88,28.21,50.39,27.56,50.47Z"/><path class="cls-4" d="M45.1,27.56c0-1.31,0-2.63-.08-3.94,0-.88.33-1.21,1.21-1.2,2.85,0,5.71,0,8.56,0,1,0,1.34.44,1.31,1.36-.05,1.26-.05,2.51-.08,3.77Z"/><path class="cls-4" d="M61.84,28.28c-.16,1.7.45,3.44-.33,5.1a1.88,1.88,0,0,0-.57-.31c-1.36-.24-3.27.66-4-.49s-.2-2.86-.23-4.33Z"/><path class="cls-4" d="M39.22,28.23l5.16,0c0,.79,0,1.59,0,2.38,0,2.41,0,2.37-2.35,2.43-.81,0-1.7-.34-2.44.31-.76-1.67-.13-3.44-.38-5.14Z"/><path class="cls-5" d="M39.6,33.37c.74-.65,1.63-.3,2.44-.31,2.34-.06,2.34,0,2.35-2.43,0-.79,0-1.59,0-2.38l.44,0c-.16,6.46,1.3,5.32-5.28,5.37A.15.15,0,0,0,39.6,33.37Z"/><path class="cls-5" d="M56.74,28.25c0,1.47-.44,3.24.23,4.33s2.61.25,4,.49a1.88,1.88,0,0,1,.57.31.16.16,0,0,0,.08.21c-6.61-.07-5.11,1.07-5.3-5.38Z"/><path class="cls-5" d="M45.1,27.56H56c0,.13,0,.26,0,.39H45Z"/><path class="cls-12" d="M39.6,33.37a.15.15,0,0,1-.06.21.2.2,0,0,1-.26.12l-.37.08-5.14,0-.11-.1c0-1.81.05-3.62.08-5.42h5.48C39.47,29.93,38.84,31.7,39.6,33.37Z"/><path class="cls-3" d="M33.77,33.76l5.14,0c-.11,6.11,1,5-5.12,5.12C33.78,37.18,33.78,35.47,33.77,33.76Z"/></g></g></svg>