<svg xmlns="http://www.w3.org/2000/svg" viewBox="0 0 100.36 86.69"><defs><style>.cls-1{fill:#040303;}.cls-2{fill:#050404;}.cls-3{fill:#060606;}.cls-4{fill:#fc0000;}.cls-5{fill:#060303;}.cls-6{fill:#fefcfc;}.cls-7{fill:#020000;}</style></defs><g id="Calque_2" data-name="Calque 2"><g id="Calque_1-2" data-name="Calque 1"><path class="cls-1" d="M38.06,0l2.37.07.09.43V5.27l-.06,1.45h-27l-.08-1.44V.5c.06-.51.51-.4.82-.49a9.11,9.11,0,0,0,2.39,0A8.62,8.62,0,0,0,19,0a9.11,9.11,0,0,0,2.39,0,8.7,8.7,0,0,0,2.39,0,9.11,9.11,0,0,0,2.39,0,8.62,8.62,0,0,0,2.38,0A9.11,9.11,0,0,0,30.9,0a8.7,8.7,0,0,0,2.39,0,9.11,9.11,0,0,0,2.39,0A8.62,8.62,0,0,0,38.06,0Z"/><path class="cls-2" d="M100.36,14.83a10.06,10.06,0,0,0,0,2.39,9.56,9.56,0,0,0,0,2.39,9.48,9.48,0,0,0,0,2.38,9.56,9.56,0,0,0,0,2.39,9.56,9.56,0,0,0,0,2.39,9.56,9.56,0,0,0,0,2.39,9.48,9.48,0,0,0,0,2.38,9.56,9.56,0,0,0,0,2.39,9.56,9.56,0,0,0,0,2.39,9.56,9.56,0,0,0,0,2.39c-.16.37.08.83-.24,1.18-2.15,0-4.31,0-6.47,0V13.42l.27,0h1.43a9.56,9.56,0,0,0,2.39,0l2.39,0C100.45,13.84,100.18,14.37,100.36,14.83Z"/><path class="cls-3" d="M52.38,86.69a9,9,0,0,0-2.38,0,10.06,10.06,0,0,0-2.39,0l-.79-.23q0-2.39,0-4.77L46.88,80l6.68,0c0,2.16,0,4.31,0,6.47C53.21,86.75,52.76,86.53,52.38,86.69Z"/><path class="cls-4" d="M53.56,80l-6.68,0,0,0c0-2,0-3.89,0-5.84,0-.6-.09-1-.83-.94-1.94,0-3.89,0-5.83.07,0-1.94,0-3.89,0-5.83,0-.51,0-.94-.72-.92-2,.05-4,.06-5.93.08,0-2,0-3.89,0-5.83,0-.62-.1-1-.83-.94-1.94.06-3.89,0-5.83.07,0-1.94,0-3.88,0-5.82,0-.62-.12-1-.84-.93-1.94.06-3.88,0-5.82.07,0-1.94-.05-3.89,0-5.83,0-.62-.12-.94-.84-.92-1.94,0-3.88,0-5.82.06,0-1.94-.05-3.88,0-5.81,0-.63-.12-1-.84-.93-1.93.06-3.87,0-5.81.06V13.4c1.9,0,3.8,0,5.7,0,.84,0,1-.34,1-1.06,0-1.9,0-3.8,0-5.69h27v0c0,1.86.07,3.72,0,5.58,0,1,.31,1.2,1.21,1.17,1.82-.07,3.64,0,5.46,0,0,1.87.08,3.74,0,5.61,0,.92.28,1.15,1.16,1.11,1.46-.07,2.94-.06,4.41,0,.85,0,1.21-.15,1.17-1.1-.09-1.86,0-3.73,0-5.6,1.91,0,3.81,0,5.72,0,.8,0,1-.26,1-1,0-1.9,0-3.81,0-5.71v0L87,6.75v0c0,1.93,0,3.87,0,5.8,0,.74.24.94.95.92,1.93,0,3.86,0,5.8,0h0V39.89h0c-1.93,0-3.87,0-5.8,0-.69,0-1,.16-1,.92.06,1.93,0,3.86,0,5.79-2,0-3.89,0-5.84,0-.68,0-.9.21-.88.88,0,2,0,3.9,0,5.84-2,0-3.89,0-5.83,0-.68,0-.9.21-.88.88,0,2,0,3.89,0,5.84-1.94,0-3.89,0-5.84,0-.68,0-.89.22-.87.89,0,1.95,0,3.9,0,5.84-1.94,0-3.89,0-5.83,0-.69,0-.89.23-.87.89,0,2,0,3.89,0,5.84-1.94,0-3.87,0-5.8-.05-.76,0-.93.27-.92,1,0,1.94,0,3.87,0,5.8Zm-26-66.57c-1.87,0-3.74,0-5.61,0-.81,0-1.12.15-1.08,1,.08,1.55,0,3.1,0,4.65,0,.87-.26,1.07-1.07,1-1.59-.06-3.18,0-4.77,0-.67,0-.88.18-.88.87q0,5.83,0,11.69c0,.57.09.86.77.84,1.7,0,3.42,0,5.12,0,.62,0,.84-.17.82-.81,0-1.55.05-3.1,0-4.65-.05-1,.16-1.33,1.2-1.26,1.55.1,3.1,0,4.65,0,.7,0,.88-.22.87-.88,0-1.63,0-3.26,0-4.89,0-.72.15-1,.91-.95,1.63.06,3.26,0,4.89,0,.64,0,.93-.11.91-.83-.05-1.67,0-3.34,0-5,0-.69-.21-.88-.88-.87C31.41,13.43,29.47,13.41,27.52,13.41Z"/><path d="M6.79,13.4V39.9h0c-2.21,0-4.41,0-6.62,0L0,38.7V36.32a8.7,8.7,0,0,0,0-2.39V31.55a8.77,8.77,0,0,0,0-2.4V26.77a8.7,8.7,0,0,0,0-2.39V22a8.77,8.77,0,0,0,0-2.4V17.22a8.7,8.7,0,0,0,0-2.39l.15-1.41,2.11,0H4.64a7.67,7.67,0,0,0,2.14,0Z"/><path class="cls-5" d="M11.8,6.69h1.67c0,1.89-.05,3.79,0,5.69,0,.72-.12,1.09-1,1.06-1.9-.07-3.8,0-5.7,0h0l-.09-1V7.67c.14-.32-.09-.76.34-1a8.7,8.7,0,0,0,2.39,0A10,10,0,0,0,11.8,6.69Z"/><path class="cls-6" d="M27.52,13.41c1.95,0,3.89,0,5.84,0,.67,0,.9.18.88.87,0,1.67-.05,3.34,0,5,0,.72-.27.85-.91.83-1.63,0-3.26,0-4.89,0-.76,0-.93.23-.91.95,0,1.63,0,3.26,0,4.89,0,.66-.17.9-.87.88-1.55-.05-3.1.06-4.65,0-1-.07-1.25.31-1.2,1.26.08,1.55,0,3.1,0,4.65,0,.64-.2.82-.82.81-1.7,0-3.42,0-5.12,0-.68,0-.77-.27-.77-.84q0-5.85,0-11.69c0-.69.21-.89.88-.87,1.59.05,3.18,0,4.77,0,.81,0,1.11-.17,1.07-1-.07-1.55,0-3.1,0-4.65,0-.88.27-1.06,1.08-1C23.78,13.45,25.65,13.41,27.52,13.41Z"/><path class="cls-5" d="M53.83,13.43c0,1.87,0,3.74,0,5.6,0,.95-.32,1.14-1.17,1.1-1.47-.06-3-.07-4.41,0-.88,0-1.19-.19-1.16-1.11.07-1.87,0-3.74,0-5.61h0l.48,0H50a9.48,9.48,0,0,0,2.38,0l1.44,0Z"/><path d="M6.79,39.9c1.94,0,3.88,0,5.81-.06.72,0,.84.3.84.93,0,1.93,0,3.87,0,5.81H7c-.33-.14-.23-.48-.34-.73V41.09l.09-1.18Z"/><path class="cls-7" d="M46.9,80a4.14,4.14,0,0,0-1.68,0,9.48,9.48,0,0,0-2.38,0,9.56,9.56,0,0,0-2.39,0c-.32-.14-.25-.46-.34-.71V74.51l.09-1.18h0c1.94,0,3.89,0,5.83-.07.74,0,.83.34.83.94C46.85,76.14,46.88,78.08,46.9,80Z"/><path class="cls-3" d="M93.68,39.88v1.21a9.56,9.56,0,0,0,0,2.39,9.56,9.56,0,0,0,0,2.39.67.67,0,0,1-.72.73H88.19l-1.2,0,0,0c0-1.93,0-3.86,0-5.79,0-.76.27-.94,1-.92C89.81,39.89,91.75,39.87,93.68,39.88Z"/><path class="cls-3" d="M60.24,73.29c0-2,0-3.89,0-5.84,0-.66.18-.9.87-.89,1.94,0,3.89,0,5.83,0l0,0,0,.73v4.77c-.15.38.1.84-.25,1.17l-2.38,0a9.56,9.56,0,0,0-2.39,0l-1.68,0Z"/><path class="cls-5" d="M47.09,6.73l.12.93a9.64,9.64,0,0,0,0,2.4v2.38l0,.48-.06.48h0c-1.82,0-3.64,0-5.46,0-.9,0-1.25-.19-1.21-1.17.07-1.86,0-3.72,0-5.58a9.56,9.56,0,0,0,2.39,0,9.48,9.48,0,0,0,2.38,0Z"/><path class="cls-2" d="M59.54,6.69l1,0c0,1.9,0,3.81,0,5.71,0,.77-.19,1.05-1,1-1.91-.06-3.81,0-5.72,0v0l0-1V7.67c-.08-.74.29-1,1-1a9.56,9.56,0,0,0,2.39,0A9.48,9.48,0,0,0,59.54,6.69Z"/><path class="cls-3" d="M93.68,13.16v.26c-1.94,0-3.87,0-5.8,0-.71,0-1-.18-.95-.92,0-1.93,0-3.87,0-5.8l.27,0h1a9.11,9.11,0,0,0,2.39,0,9.48,9.48,0,0,0,2.38,0c.7,0,.65.53.72,1a9.56,9.56,0,0,0,0,2.39,9.48,9.48,0,0,0,0,2.38Z"/><path class="cls-3" d="M73.6,59.92c0-2,0-3.89,0-5.84,0-.67.2-.89.88-.88,1.94,0,3.88,0,5.83,0l0,0c0,1.51,0,3,0,4.55l-.06,2L78.64,60a8.7,8.7,0,0,0-2.39,0H73.87l-.25,0Z"/><path d="M33.53,66.65c2,0,3.95,0,5.93-.08.73,0,.72.41.72.92,0,1.94,0,3.89,0,5.83h0a7.31,7.31,0,0,0-2.14,0,9.56,9.56,0,0,0-2.39,0l-2.07,0-.18-1.17V69.75a9.64,9.64,0,0,0,0-2.4l.08-.69Z"/><path class="cls-5" d="M13.47,46.58c1.94,0,3.88,0,5.82-.06.72,0,.85.3.84.92,0,1.94,0,3.89,0,5.83h-6c-.25-.12-.59,0-.8-.25,0-1.59,0-3.18,0-4.77l.09-1.66Z"/><path class="cls-3" d="M80.28,53.24c0-1.94,0-3.89,0-5.84,0-.67.2-.89.88-.88,2,0,3.89,0,5.84,0l0,0v1.69a9.48,9.48,0,0,0,0,2.38L87,53c-.34.33-.8.09-1.18.25H81l-.73,0Z"/><path class="cls-5" d="M26.84,60c1.94,0,3.89,0,5.83-.07.73,0,.84.32.83.94,0,1.94,0,3.88,0,5.83h0a10.36,10.36,0,0,0-2.61,0,10.06,10.06,0,0,0-2.39,0l-1.6,0-.16-1.17V65l.09-5Z"/><path class="cls-3" d="M66.91,66.61c0-1.94,0-3.89,0-5.84,0-.67.19-.9.87-.89,1.95,0,3.9,0,5.84,0l0,0v2.64a8.7,8.7,0,0,0,0,2.39l-.12,1.62-2,0a10.06,10.06,0,0,0-2.39,0H66.93Z"/><path class="cls-3" d="M54.77,80H53.56c0-1.93,0-3.86,0-5.8,0-.69.16-1,.92-1,1.93.06,3.86,0,5.8.05v0c0,1.2,0,2.4,0,3.59v2.39c0,.48-.28.69-.73.72a9.48,9.48,0,0,0-2.38,0A9.56,9.56,0,0,0,54.77,80Z"/><path class="cls-5" d="M20.16,53.27c1.94,0,3.88,0,5.82-.07.72,0,.84.31.84.93,0,1.94,0,3.88,0,5.82v0c-1.94,0-3.87-.09-5.81-.06-.75,0-.94-.24-.91-.95,0-1.18,0-2.37-.05-3.55l.08-2.13Z"/><path class="cls-1" d="M84.74,0l2.37.07.09.43V5.29l-.06,1.45h-27l-.09-1.44V.52c.07-.51.51-.4.82-.49a9.11,9.11,0,0,0,2.39,0,8.62,8.62,0,0,0,2.38,0A8.77,8.77,0,0,0,68,0a8.62,8.62,0,0,0,2.38,0,8.7,8.7,0,0,0,2.39,0,8.62,8.62,0,0,0,2.38,0,8.7,8.7,0,0,0,2.39,0A8.7,8.7,0,0,0,80,0a8.7,8.7,0,0,0,2.39,0A8.62,8.62,0,0,0,84.74,0Z"/></g></g></svg>