<svg xmlns="http://www.w3.org/2000/svg" viewBox="0 0 104 104"><defs><style>.cls-1{fill:#fdc886;opacity:0.5;}.cls-2{fill:#030204;}.cls-3{fill:#424941;}.cls-4{fill:#442004;}.cls-5{fill:#9f5b00;}</style></defs><g id="Calque_2" data-name="Calque 2"><g id="Calque_2-2" data-name="Calque 2"><polygon class="cls-1" points="98.06 31.94 25.26 31.94 25.26 44.57 18.57 44.57 18.57 57.94 12.63 57.94 12.63 70.57 5.94 70.57 5.94 91.37 12.63 91.37 12.63 98.06 84.69 98.06 84.69 89.89 78 89.89 78 72.06 84.69 72.06 84.69 58.69 91.37 58.69 91.37 46.06 98.06 46.06 98.06 31.94"/><rect class="cls-2" x="25.26" y="52" width="33.43" height="6.69"/><rect class="cls-3" x="58.69" y="52" width="5.94" height="6.69"/><rect class="cls-2" x="57.94" y="38.63" width="26.74" height="6.69"/><rect class="cls-2" x="38.63" y="38.63" width="14.11" height="6.69"/><rect class="cls-3" x="32.69" y="38.63" width="5.94" height="6.69"/><rect class="cls-2" x="71.31" y="52" width="6.69" height="6.69"/><rect class="cls-2" x="19.31" y="64.63" width="14.11" height="6.69"/><rect class="cls-2" x="45.31" y="64.63" width="7.43" height="6.69"/><rect class="cls-2" x="57.2" y="64.63" width="14.86" height="6.69"/><rect class="cls-2" x="38.63" y="78" width="32.69" height="6.69"/><rect class="cls-2" x="12.63" y="77.26" width="14.11" height="6.69"/><rect class="cls-3" x="38.63" y="64.63" width="6.69" height="6.69"/><rect class="cls-3" x="31.94" y="78" width="6.69" height="6.69"/><polygon class="cls-4" points="97.31 13.37 97.31 20.06 90.63 20.06 90.63 26 13.37 26 13.37 31.94 90.63 31.94 97.31 31.94 97.31 46.06 104 46.06 104 31.94 104 20.06 104 13.37 97.31 13.37"/><rect class="cls-4" x="90.63" y="6.69" width="6.69" height="6.69"/><rect class="cls-4" x="83.94" y="13.37" width="6.69" height="6.69"/><polygon class="cls-4" points="13.37 6.69 90.63 6.69 90.63 0 12.63 0 12.63 6.69 6.69 6.69 6.69 13.37 13.37 13.37 13.37 6.69"/><polygon class="cls-4" points="6.69 19.31 6.69 13.37 0 13.37 0 20.06 6.69 20.06 6.69 26 13.37 26 13.37 19.31 6.69 19.31"/><rect class="cls-5" x="90.63" y="13.37" width="6.69" height="6.69"/><rect class="cls-4" x="19.31" y="31.94" width="5.94" height="13.37"/><rect class="cls-4" x="13.37" y="45.31" width="5.94" height="13.37"/><polygon class="cls-4" points="13.37 72.06 13.37 58.69 6.69 58.69 6.69 71.31 0.74 71.31 0.74 91.37 6.69 91.37 6.69 72.06 13.37 72.06"/><rect class="cls-4" x="6.69" y="91.37" width="5.94" height="5.94"/><rect class="cls-4" x="91.37" y="46.06" width="5.94" height="12.63"/><rect class="cls-4" x="84.69" y="58.69" width="6.69" height="12.63"/><polygon class="cls-4" points="84.69 77.26 84.69 71.31 78 71.31 78 90.63 84.69 90.63 84.69 83.94 97.31 83.94 97.31 97.31 104 97.31 104 83.94 104 77.26 84.69 77.26"/><polygon class="cls-4" points="90.63 90.63 84.69 90.63 84.69 97.31 12.63 97.31 12.63 104 97.31 104 97.31 97.31 90.63 97.31 90.63 90.63"/><polygon class="cls-5" points="90.63 83.94 84.69 83.94 84.69 90.63 90.63 90.63 90.63 97.31 97.31 97.31 97.31 83.94 90.63 83.94"/><polygon class="cls-1" points="90.63 13.37 90.63 6.69 83.94 6.69 13.37 6.69 13.37 13.37 6.69 13.37 6.69 19.31 13.37 19.31 13.37 26 83.94 26 90.63 26 90.63 20.06 83.94 20.06 83.94 13.37 90.63 13.37"/></g></g></svg>